<svg width="33" height="32" viewBox="0 0 33 32" fill="none" xmlns="http://www.w3.org/2000/svg">
<path d="M16.3333 2.66666C12.9152 2.67641 9.63132 3.99854 7.16 6.35999V3.99999C7.16 3.64637 7.01952 3.30723 6.76948 3.05718C6.51943 2.80713 6.18029 2.66666 5.82667 2.66666C5.47304 2.66666 5.13391 2.80713 4.88386 3.05718C4.63381 3.30723 4.49333 3.64637 4.49333 3.99999V9.99999C4.49333 10.3536 4.63381 10.6927 4.88386 10.9428C5.13391 11.1928 5.47304 11.3333 5.82667 11.3333H11.8267C12.1803 11.3333 12.5194 11.1928 12.7695 10.9428C13.0195 10.6927 13.16 10.3536 13.16 9.99999C13.16 9.64637 13.0195 9.30723 12.7695 9.05718C12.5194 8.80713 12.1803 8.66666 11.8267 8.66666H8.62667C10.341 6.87513 12.626 5.73686 15.0887 5.44755C17.5514 5.15824 20.038 5.73596 22.1209 7.08138C24.2038 8.42681 25.7528 10.4559 26.5018 12.8197C27.2507 15.1835 27.1527 17.7345 26.2246 20.0339C25.2964 22.3332 23.5962 24.2375 21.4162 25.4191C19.2362 26.6007 16.7126 26.9859 14.2794 26.5084C11.8462 26.031 9.65529 24.7207 8.08346 22.8029C6.51162 20.8851 5.65705 18.4796 5.66667 16C5.66667 15.6464 5.52619 15.3072 5.27614 15.0572C5.02609 14.8071 4.68696 14.6667 4.33333 14.6667C3.97971 14.6667 3.64057 14.8071 3.39052 15.0572C3.14048 15.3072 3 15.6464 3 16C3 18.6371 3.78199 21.2149 5.24707 23.4076C6.71216 25.6002 8.79454 27.3092 11.2309 28.3184C13.6672 29.3276 16.3481 29.5916 18.9345 29.0771C21.521 28.5627 23.8967 27.2928 25.7614 25.4281C27.6261 23.5634 28.896 21.1876 29.4105 18.6012C29.9249 16.0148 29.6609 13.3339 28.6517 10.8975C27.6426 8.4612 25.9336 6.37881 23.7409 4.91373C21.5483 3.44864 18.9704 2.66666 16.3333 2.66666ZM16.3333 10.6667C15.9797 10.6667 15.6406 10.8071 15.3905 11.0572C15.1405 11.3072 15 11.6464 15 12V16C15 16.3536 15.1405 16.6928 15.3905 16.9428C15.6406 17.1928 15.9797 17.3333 16.3333 17.3333H19C19.3536 17.3333 19.6928 17.1928 19.9428 16.9428C20.1929 16.6928 20.3333 16.3536 20.3333 16C20.3333 15.6464 20.1929 15.3072 19.9428 15.0572C19.6928 14.8071 19.3536 14.6667 19 14.6667H17.6667V12C17.6667 11.6464 17.5262 11.3072 17.2761 11.0572C17.0261 10.8071 16.687 10.6667 16.3333 10.6667Z" fill="white"/>
</svg>
