<svg width="33" height="32" viewBox="0 0 33 32" fill="none" xmlns="http://www.w3.org/2000/svg">
<path d="M7.43895 3.03486C8.04363 2.34059 8.04363 1.21496 7.43895 0.520699C6.83427 -0.173566 5.85388 -0.173566 5.2492 0.520699L1.12017 5.26144C0.515486 5.95571 0.515486 7.08133 1.12017 7.7756L5.2492 12.5163C5.85388 13.2106 6.83427 13.2106 7.43895 12.5163C8.04363 11.8221 8.04363 10.6964 7.43895 10.0022L5.95318 8.2963H26.9892C27.8444 8.2963 28.5376 7.50036 28.5376 6.51852C28.5376 5.53668 27.8444 4.74074 26.9892 4.74074H5.95318L7.43895 3.03486Z" fill="white"/>
<path d="M25.8944 19.4837C25.2897 20.1779 25.2897 21.3036 25.8944 21.9978L27.3801 23.7037H6.34408C5.48893 23.7037 4.79569 24.4996 4.79569 25.4815C4.79569 26.4633 5.48893 27.2593 6.34408 27.2593H27.3801L25.8944 28.9651C25.2897 29.6594 25.2897 30.785 25.8944 31.4793C26.499 32.1736 27.4794 32.1736 28.0841 31.4793L32.2131 26.7386C32.8178 26.0443 32.8178 24.9187 32.2131 24.2244L28.0841 19.4837C27.4794 18.7894 26.499 18.7894 25.8944 19.4837Z" fill="white"/>
</svg>
