<svg width="32" height="32" viewBox="0 0 32 32" fill="none" xmlns="http://www.w3.org/2000/svg">
<g clip-path="url(#clip0_13_1726)">
<path d="M30.6666 5.33332V13.3333M30.6666 13.3333H22.6666M30.6666 13.3333L24.48 7.51999C23.047 6.08627 21.2741 5.03893 19.3269 4.47569C17.3797 3.91244 15.3215 3.85166 13.3444 4.299C11.3673 4.74634 9.53571 5.68723 8.0206 7.03388C6.50549 8.38053 5.3562 10.089 4.67998 12M1.33331 26.6667V18.6667M1.33331 18.6667H9.33331M1.33331 18.6667L7.51998 24.48C8.95298 25.9137 10.7258 26.961 12.6731 27.5243C14.6203 28.0875 16.6785 28.1483 18.6556 27.701C20.6327 27.2536 22.4642 26.3127 23.9794 24.9661C25.4945 23.6195 26.6438 21.9109 27.32 20" stroke="white" stroke-width="3" stroke-linecap="round" stroke-linejoin="round"/>
</g>
<defs>
<clipPath id="clip0_13_1726">
<rect width="32" height="32" fill="white"/>
</clipPath>
</defs>
</svg>
